<?xml version="1.0" encoding="UTF-8" standalone="no"?>
<!DOCTYPE svg PUBLIC "-//W3C//DTD SVG 1.1//EN" "http://www.w3.org/Graphics/SVG/1.1/DTD/svg11.dtd">
<svg width="100%" height="100%" viewBox="0 0 618 352" version="1.1" xmlns="http://www.w3.org/2000/svg" xmlns:xlink="http://www.w3.org/1999/xlink" xml:space="preserve" xmlns:serif="http://www.serif.com/" style="fill-rule:evenodd;clip-rule:evenodd;stroke-linejoin:round;stroke-miterlimit:2;">
    <path d="M157.549,281.7C168.749,281.7 179.049,280.3 188.449,277.5C198.049,274.5 206.349,270.3 213.349,264.9C220.549,259.5 225.849,253 229.249,245.4L187.249,228.9C184.849,233.9 181.449,238.1 177.049,241.5C172.649,244.7 166.849,246.3 159.649,246.3C153.849,246.3 148.749,245.2 144.349,243C140.149,240.6 136.749,237.2 134.149,232.8C131.749,228.4 130.549,223 130.549,216.6C130.549,210.6 131.049,204.4 132.049,198C133.249,191.6 135.249,185.7 138.049,180.3C140.849,174.7 144.549,170.2 149.149,166.8C153.949,163.4 159.949,161.7 167.149,161.7C171.549,161.7 175.349,162.6 178.549,164.4C181.749,166 184.249,168.5 186.049,171.9C187.849,175.3 188.749,179.6 188.749,184.8C188.749,186.6 188.649,188.5 188.449,190.5C188.249,192.5 187.749,194.9 186.949,197.7L201.049,189.9L116.149,189.9L116.149,217.5L234.349,217.5C235.549,213.5 236.349,209.4 236.749,205.2C237.149,201 237.349,197 237.349,193.2C237.349,179.6 234.649,167.8 229.249,157.8C223.849,147.8 215.949,140.1 205.549,134.7C195.349,129.1 182.949,126.3 168.349,126.3C150.749,126.3 135.549,130.1 122.749,137.7C110.149,145.3 100.349,155.7 93.349,168.9C86.549,181.9 83.149,196.8 83.149,213.6C83.149,227.2 86.249,239.1 92.449,249.3C98.649,259.5 107.349,267.5 118.549,273.3C129.749,278.9 142.749,281.7 157.549,281.7M302.159,281.7C307.559,281.7 312.159,281.4 315.959,280.8C319.759,280.4 323.259,279.5 326.459,278.1L335.459,245.1C334.259,245.5 332.759,245.8 330.959,246C329.159,246.2 327.059,246.3 324.659,246.3C318.259,246.3 313.859,244.7 311.459,241.5C309.059,238.1 308.759,233.1 310.559,226.5L347.759,65.4L296.759,65.4L259.259,227.1C255.259,243.7 256.859,257 264.059,267C271.459,276.8 284.159,281.7 302.159,281.7M400.596,281.7C405.996,281.7 410.596,281.4 414.396,280.8C418.196,280.4 421.696,279.5 424.896,278.1L433.896,245.1C432.696,245.5 431.196,245.8 429.396,246C427.596,246.2 425.496,246.3 423.096,246.3C416.696,246.3 412.296,244.7 409.896,241.5C407.496,238.1 407.196,233.1 408.996,226.5L446.196,65.4L395.196,65.4L357.696,227.1C353.696,243.7 355.296,257 362.496,267C369.896,276.8 382.596,281.7 400.596,281.7M527.862,281.7C539.062,281.7 549.362,280.3 558.762,277.5C568.362,274.5 576.662,270.3 583.662,264.9C590.862,259.5 596.162,253 599.562,245.4L557.562,228.9C555.162,233.9 551.762,238.1 547.362,241.5C542.962,244.7 537.162,246.3 529.962,246.3C524.162,246.3 519.062,245.2 514.662,243C510.462,240.6 507.062,237.2 504.462,232.8C502.062,228.4 500.862,223 500.862,216.6C500.862,210.6 501.362,204.4 502.362,198C503.562,191.6 505.562,185.7 508.362,180.3C511.162,174.7 514.862,170.2 519.462,166.8C524.262,163.4 530.262,161.7 537.462,161.7C541.862,161.7 545.662,162.6 548.862,164.4C552.062,166 554.562,168.5 556.362,171.9C558.162,175.3 559.062,179.6 559.062,184.8C559.062,186.6 558.962,188.5 558.762,190.5C558.562,192.5 558.062,194.9 557.262,197.7L571.362,189.9L486.462,189.9L486.462,217.5L604.662,217.5C605.862,213.5 606.662,209.4 607.062,205.2C607.462,201 607.662,197 607.662,193.2C607.662,179.6 604.962,167.8 599.562,157.8C594.162,147.8 586.262,140.1 575.862,134.7C565.662,129.1 553.262,126.3 538.662,126.3C521.062,126.3 505.862,130.1 493.062,137.7C480.462,145.3 470.662,155.7 463.662,168.9C456.862,181.9 453.462,196.8 453.462,213.6C453.462,227.2 456.562,239.1 462.762,249.3C468.962,259.5 477.662,267.5 488.862,273.3C500.062,278.9 513.062,281.7 527.862,281.7" style="fill:rgb(125,46,66);fill-rule:nonzero;"/>
</svg>
